<svg xmlns="http://www.w3.org/2000/svg" viewBox="0 0 128 128"><defs><style>.cls-1{fill:none;}.cls-1,.cls-2,.cls-3{stroke:#3a3a3a;stroke-miterlimit:10;stroke-width:0.25px;}.cls-2{fill:#3a3a3a;}.cls-3,.cls-4{fill:#fff;}</style></defs><g id="Layer_1" data-name="Layer 1"><polygon class="cls-1" points="52.23 67.28 51.98 67.58 51.98 67.03 52.23 67.28"/><path class="cls-2" d="M47.3,74.81a1,1,0,0,0-1.43.06l.1-.12a1,1,0,0,0,0-1.32l-.13-.13a1,1,0,0,0,1.44,0l-.1.12a1,1,0,0,0,0,1.32Z"/><path class="cls-2" d="M46.73,61.78a1,1,0,0,0-1.44,0,1.2,1.2,0,0,0-.07-1.56,1,1,0,0,0,1.44-.07l-.11.13a1,1,0,0,0,.05,1.32Z"/><path class="cls-2" d="M52,64.67V67l-1.67-1.67A1,1,0,0,0,52,64.67Z"/><path class="cls-2" d="M52,67.58v2.69a1,1,0,0,0-1.7-.66Z"/><polygon class="cls-1" points="51.98 67.03 52.23 67.28 51.98 67.58 51.98 67.03"/><path class="cls-2" d="M30.57,23.84v87.45H95.12V23.84Zm51,75.1H71.83a1,1,0,0,1-.7-.29L52.27,79.78a1,1,0,0,1-.29-.69v-2a1,1,0,0,1-1.67.69l1.38,1.38a1,1,0,0,1,.29.7V98a1,1,0,0,1-1,1H44.14a1,1,0,0,1-1-1V78.45a1,1,0,0,1,.23-.63l1.47-1.75a1,1,0,0,1-1.7-.66V73a1,1,0,0,1,1.67-.69L43.45,71a1,1,0,0,1-.29-.7V64.74a1,1,0,0,1,.23-.63l1.49-1.79a1,1,0,0,1-1.72-.63V60.57a1,1,0,0,1,1.67-.69L43.45,58.5a1,1,0,0,1-.29-.7V33.06a1,1,0,0,1,1-1H51a1,1,0,0,1,1,1V53.5a1,1,0,0,1-.23.63l-1.5,1.79a1,1,0,0,1,1.73.63V54.22a1,1,0,0,1,.23-.63L70,32.43a1,1,0,0,1,.75-.35h9a1,1,0,0,1,.75,1.61L52.23,67.28l30,30A1,1,0,0,1,81.54,98.94Z"/></g><g id="Layer_2" data-name="Layer 2"><path class="cls-3" d="M82.23,97.27l-30-30L80.42,33.69a1,1,0,0,0-.75-1.61h-9a1,1,0,0,0-.75.35L52.21,53.59a1,1,0,0,0-.23.63v2.33a1,1,0,0,0-1.73-.63l1.5-1.79A1,1,0,0,0,52,53.5V33.06a1,1,0,0,0-1-1H44.14a1,1,0,0,0-1,1V57.8a1,1,0,0,0,.29.7l1.38,1.38a1,1,0,0,0-1.67.69v1.12a1,1,0,0,0,1.72.63l-1.49,1.79a1,1,0,0,0-.23.63v5.52a1,1,0,0,0,.29.7l1.38,1.38a1,1,0,0,0-1.67.69v2.38a1,1,0,0,0,1.7.66l-1.47,1.75a1,1,0,0,0-.23.63V98a1,1,0,0,0,1,1H51a1,1,0,0,0,1-1V79.9a1,1,0,0,0-.29-.7l-1.38-1.38A1,1,0,0,0,52,77.13v2a1,1,0,0,0,.29.69L71.13,98.65a1,1,0,0,0,.7.29h9.71A1,1,0,0,0,82.23,97.27ZM52,64.67V67l-1.67-1.67A1,1,0,0,0,52,64.67ZM46.66,60.2l-.11.13a1,1,0,0,0,.05,1.32l.13.13a1,1,0,0,0-1.44,0,1.2,1.2,0,0,0-.07-1.56A1,1,0,0,0,46.66,60.2Zm-.79,14.67.1-.12a1,1,0,0,0,0-1.32l-.13-.13a1,1,0,0,0,1.44,0l-.1.12a1,1,0,0,0,0,1.32l.12.12A1,1,0,0,0,45.87,74.87ZM52,70.27a1,1,0,0,0-1.7-.66l1.7-2Z"/><path class="cls-4" d="M31.9,105.61h.5v.5h-.5Zm0,1h.5v2.54h-.5Z"/><path class="cls-4" d="M33.21,105.61h.5v3.55h-.5Zm.39,2,1.57-2h.61l-2.25,2.74Zm.59-.34.39-.36,1.35,2.26h-.61Z"/><path class="cls-4" d="M36.79,109a1,1,0,0,1-.42-.45,1.59,1.59,0,0,1-.15-.72v-2.26h.5v2.28a.85.85,0,0,0,.19.6.73.73,0,0,0,.56.21.71.71,0,0,0,.55-.21.85.85,0,0,0,.2-.6v-2.28h.5v2.26a1.59,1.59,0,0,1-.15.72,1,1,0,0,1-.43.45,1.38,1.38,0,0,1-.67.16A1.42,1.42,0,0,1,36.79,109Z"/><path class="cls-4" d="M39.5,105.61H40v3.55h-.5Zm.21,1.57h1.22a.54.54,0,0,0,.25-.06.55.55,0,0,0,.17-.2.65.65,0,0,0,.06-.29.68.68,0,0,0-.06-.29.45.45,0,0,0-.17-.19.43.43,0,0,0-.25-.07H39.71v-.47h1.2a1.19,1.19,0,0,1,.54.12,1,1,0,0,1,.36.36,1.19,1.19,0,0,1,0,1.08.86.86,0,0,1-.37.36,1.12,1.12,0,0,1-.53.13h-1.2Zm1,.37.5-.12.9,1.73h-.59Z"/><path class="cls-4" d="M42.76,105.61h.49v3.55h-.49Zm.33,3.07h.81a.85.85,0,0,0,.61-.2.77.77,0,0,0,.21-.57v-1a.74.74,0,0,0-.21-.57.85.85,0,0,0-.61-.21h-.81v-.47h.79a1.61,1.61,0,0,1,.73.15,1,1,0,0,1,.46.43,1.35,1.35,0,0,1,.16.69v1a1.34,1.34,0,0,1-.16.68,1,1,0,0,1-.46.44,1.64,1.64,0,0,1-.73.15h-.79Z"/><path class="cls-3" d="M46,74.75l-.1.12-1,1.17,0,0a1,1,0,0,1-1.7-.66V73a1,1,0,0,1,1.67-.69l1,1,.13.13A1,1,0,0,1,46,74.75Z"/><path class="cls-3" d="M52,56.55v8.12a1,1,0,0,1-1.67.69L46.6,61.65a1,1,0,0,1-.05-1.32l.11-.13,3.59-4.28A1,1,0,0,1,52,56.55Z"/><path class="cls-3" d="M52,67v.55l-1.7,2-3,3.63h0a1,1,0,0,1-1.44,0l-1-1L43.45,71a1,1,0,0,1-.29-.7V64.74a1,1,0,0,1,.23-.63l1.49-1.79.4-.48h0a1,1,0,0,1,1.44,0Z"/><path class="cls-3" d="M80.42,33.69,52.23,67.28,52,67V54.22a1,1,0,0,1,.23-.63L70,32.43a1,1,0,0,1,.75-.35h9A1,1,0,0,1,80.42,33.69Z"/><path class="cls-3" d="M81.54,98.94H71.83a1,1,0,0,1-.7-.29L52.27,79.78a1,1,0,0,1-.29-.69V67.58l.25-.3,30,30A1,1,0,0,1,81.54,98.94Z"/><path class="cls-3" d="M52,70.27v6.86a1,1,0,0,1-1.67.69l-3.13-3.13a1,1,0,0,1,0-1.32l.1-.12h0l3-3.63A1,1,0,0,1,52,70.27Z"/><path class="cls-3" d="M45.29,61.83h0l-.4.48a1,1,0,0,1-1.72-.63V60.57a1,1,0,0,1,1.67-.69l.37.37,0,0A1.2,1.2,0,0,1,45.29,61.83Z"/><path class="cls-3" d="M52,79.9V98a1,1,0,0,1-1,1H44.14a1,1,0,0,1-1-1V78.45a1,1,0,0,1,.23-.63l1.47-1.75,0,0,1-1.17a1,1,0,0,1,1.43-.06l4.39,4.39A1,1,0,0,1,52,79.9Z"/><path class="cls-3" d="M52,33.06V53.5a1,1,0,0,1-.23.63l-1.5,1.79L46.66,60.2a1,1,0,0,1-1.44.07l0,0L43.45,58.5a1,1,0,0,1-.29-.7V33.06a1,1,0,0,1,1-1H51A1,1,0,0,1,52,33.06Z"/></g></svg>